<?xml version="1.0" encoding="UTF-8" standalone="no"?>
<!-- Created with Inkscape (http://www.inkscape.org/) -->

<svg
   xmlns:dc="http://purl.org/dc/elements/1.1/"
   xmlns:cc="http://creativecommons.org/ns#"
   xmlns:rdf="http://www.w3.org/1999/02/22-rdf-syntax-ns#"
   xmlns:svg="http://www.w3.org/2000/svg"
   xmlns="http://www.w3.org/2000/svg"
   xmlns:sodipodi="http://sodipodi.sourceforge.net/DTD/sodipodi-0.dtd"
   xmlns:inkscape="http://www.inkscape.org/namespaces/inkscape"
   width="700"
   height="900"
   viewBox="0 0 185.20833 238.12502"
   version="1.1"
   id="svg6874"
   inkscape:version="0.92.3 (2405546, 2018-03-11)"
   sodipodi:docname="footprint-w-06.svg">
  <defs
     id="defs6868" />
  <sodipodi:namedview
     id="base"
     pagecolor="#ffffff"
     bordercolor="#666666"
     borderopacity="1.0"
     inkscape:pageopacity="0.0"
     inkscape:pageshadow="2"
     inkscape:zoom="0.35"
     inkscape:cx="-13.039903"
     inkscape:cy="405.80695"
     inkscape:document-units="mm"
     inkscape:current-layer="g841"
     showgrid="false"
     inkscape:snap-global="true"
     inkscape:window-width="1366"
     inkscape:window-height="705"
     inkscape:window-x="-8"
     inkscape:window-y="-8"
     inkscape:window-maximized="1"
     units="px"
     inkscape:measure-start="25.7143,564.286"
     inkscape:measure-end="804.423,565.123" />
  <metadata
     id="metadata6871">
    <rdf:RDF>
      <cc:Work
         rdf:about="">
        <dc:format>image/svg+xml</dc:format>
        <dc:type
           rdf:resource="http://purl.org/dc/dcmitype/StillImage" />
        <dc:title></dc:title>
      </cc:Work>
    </rdf:RDF>
  </metadata>
  <g
     inkscape:label="Livello 1"
     inkscape:groupmode="layer"
     id="layer1"
     transform="translate(-4.3105475,10.925467)">
    <g
       transform="matrix(0.23409677,0,0,0.24512341,-345.81696,8.2184077)"
       id="layer2"
       style="fill:#000000;fill-opacity:1">
      <g
         id="g829">
        <g
           id="g833">
          <g
             id="g837">
            <g
               id="g841"
               transform="translate(-0.6471104,-1.2220157e-6)">
              <g
                 id="g845"
                 style="fill:#ffffff;fill-opacity:0.66666669">
                <path
                   style="fill:#ffffff;fill-opacity:0.66666669;stroke-width:0.8575843"
                   inkscape:connector-curvature="0"
                   id="path3802"
                   d="m 1794.291,-24.123039 c -29.7548,1.178382 -54.3762,30.5137903 -51.2509,59.737446 -0.8783,24.192256 2.8003,49.893795 17.4603,69.914543 15.2929,16.58752 42.6864,22.41856 62.3891,10.2513 19.6013,-14.07408 26.528,-41.3384 19.4513,-63.784547 -6.5086,-26.790627 -18.9082,-52.58702618 -37.8908,-72.861024 -2.9672,-2.027922 -6.5193,-3.369304 -10.159,-3.257718 z m -98.9779,46.805531 c -16.2095,4.4161 -24.8096,23.744193 -19.9111,39.169531 1.9024,12.214788 9.476,25.122225 22.2359,28.325167 15.9975,1.619153 30.0425,-13.772884 29.2906,-29.238733 0.7743,-17.373633 -11.6609,-35.817158 -29.6419,-38.309337 -0.6692,-0.09693 -1.3271,-0.229522 -1.9735,0.05338 z m -49.5721,42.15888 c -18.2326,2.222108 -28.2883,26.165741 -18.1184,41.025168 6.5246,10.16571 21.9509,15.34007 32.2598,7.70549 13.0153,-10.18935 12.2697,-31.66981 0.4044,-42.458674 -3.8494,-3.743701 -9.0455,-6.473561 -14.5458,-6.271984 z m -36.4473,42.058698 c -16.5356,1.09341 -28.5038,21.96108 -19.5507,36.27295 7.0538,10.67186 26.1728,7.78643 29.8564,-4.41584 5.6075,-10.34714 3.1707,-25.3985 -7.2238,-31.76835 -1.0194,-0.14633 -2.0555,-0.15108 -3.0819,-0.0887 z m 156.1769,30.60484 c -49.363,1.04447 -96.9726,19.12553 -138.4769,44.89674 -24.9551,14.62734 -48.0301,34.99473 -59.195,62.15507 -13.4816,34.6878 -15.6892,72.46192 -14.8223,109.27721 1.7351,50.85175 10.815,101.15797 22.3423,150.63143 15.653,64.78456 37.224,128.20773 64.9087,188.90047 19.7328,41.6882 43.1608,82.34871 75.1279,116.04265 20.2529,19.14249 48.083,32.27552 76.5044,29.63519 33.2601,-3.20062 62.946,-29.5784 69.102,-62.3438 5.8876,-24.16904 0.995,-49.18838 -4.8332,-72.85666 -8.2916,-41.34998 -9.2705,-84.22195 -23.0088,-124.42648 -9.7742,-30.53574 -21.275,-60.74437 -25.2213,-92.75728 -4.5758,-29.8249 -7.3927,-59.92971 -7.7078,-90.11873 0.8847,-26.44885 9.6367,-52.14269 22.6738,-75.0501 12.9061,-25.59676 26.7373,-52.04589 28.2981,-81.20488 2.0242,-39.75755 -20.7276,-80.58763 -57.4967,-97.4319 -8.8348,-3.88443 -18.5728,-5.4556 -28.1952,-5.34893 z m -188.6941,10.78765 c -17.1372,0.98866 -26.3833,24.9018 -14.7658,37.26033 6.804,8.7164 23.221,2.60752 22.7997,-8.35359 1.7189,-9.57754 1.8894,-21.21516 -5.7358,-28.42956 -0.701,-0.36918 -1.5089,-0.51757 -2.2981,-0.47718 z" />
                <path
                   d="m 1989.4704,-24.123039 c 29.7548,1.178382 54.3761,30.5137871 51.2509,59.737446 0.8782,24.192256 -2.8003,49.893795 -17.4603,69.914543 -15.293,16.58752 -42.6864,22.41856 -62.3891,10.2513 -19.6013,-14.07408 -26.5279,-41.3384 -19.4513,-63.784547 6.5086,-26.790627 18.9082,-52.5870297 37.8907,-72.861024 2.9673,-2.027922 6.5194,-3.369304 10.1591,-3.257718 z m 98.9778,46.805531 c 16.2095,4.4161 24.8097,23.744193 19.9112,39.169531 -1.9024,12.214788 -9.476,25.122225 -22.2359,28.325167 -15.9975,1.619153 -30.0425,-13.772884 -29.2906,-29.238733 -0.7743,-17.373633 11.6609,-35.817158 29.6419,-38.309337 0.6692,-0.09693 1.3271,-0.229522 1.9734,0.05338 z m 49.5721,42.15888 c 18.2327,2.222108 28.2884,26.165741 18.1185,41.025168 -6.5247,10.16571 -21.9509,15.34007 -32.2599,7.70549 -13.0152,-10.18935 -12.2696,-31.66981 -0.4043,-42.458674 3.8494,-3.743701 9.0455,-6.473561 14.5457,-6.271984 z m 36.4474,42.058698 c 16.5356,1.09341 28.5038,21.96108 19.5506,36.27295 -7.0537,10.67186 -26.1727,7.78643 -29.8563,-4.41584 -5.6076,-10.34714 -3.1707,-25.3985 7.2237,-31.76835 1.0195,-0.14633 2.0555,-0.15108 3.082,-0.0887 z m -156.1769,30.60484 c 49.363,1.04447 96.9726,19.12553 138.4769,44.89674 24.9551,14.62734 48.03,34.99473 59.1949,62.15507 13.4816,34.6878 15.6893,72.46192 14.8224,109.27721 -1.7351,50.85175 -10.815,101.15797 -22.3423,150.63143 -15.653,64.78456 -37.224,128.20773 -64.9087,188.90047 -19.7328,41.6882 -43.1608,82.34871 -75.1279,116.04265 -20.2529,19.14249 -48.083,32.27552 -76.5044,29.63519 -33.2601,-3.20062 -62.946,-29.5784 -69.102,-62.3438 -5.8876,-24.16904 -0.995,-49.18838 4.8331,-72.85666 8.2917,-41.34998 9.2706,-84.22195 23.0089,-124.42648 9.7742,-30.53574 21.2751,-60.74437 25.2213,-92.75728 4.5758,-29.8249 7.3927,-59.92971 7.7078,-90.11873 -0.8847,-26.44885 -9.6367,-52.14269 -22.6738,-75.0501 -12.9062,-25.59676 -26.7373,-52.04589 -28.2981,-81.20488 -2.0242,-39.75755 20.7276,-80.58763 57.4966,-97.4319 8.8348,-3.88443 18.5728,-5.4556 28.1953,-5.34893 z m 188.694,10.78765 c 17.1373,0.98866 26.3833,24.9018 14.7658,37.26033 -6.8039,8.7164 -23.2209,2.60752 -22.7996,-8.35359 -1.7189,-9.57754 -1.8894,-21.21516 5.7358,-28.42956 0.701,-0.36918 1.5088,-0.51757 2.298,-0.47718 z"
                   id="path5120"
                   inkscape:connector-curvature="0"
                   style="fill:#ffffff;fill-opacity:0.66666669;stroke-width:0.8575843" />
              </g>
            </g>
          </g>
        </g>
      </g>
    </g>
  </g>
</svg>
